<svg width="1280" height="780" viewBox="0 0 1280 780" fill="none" xmlns="http://www.w3.org/2000/svg">
  <defs>
    <linearGradient id="bg2" x1="640" y1="0" x2="640" y2="780" gradientUnits="userSpaceOnUse">
      <stop stop-color="#070B1D"/>
      <stop offset="1" stop-color="#100D2E"/>
    </linearGradient>
    <filter id="soft" x="-20%" y="-20%" width="140%" height="140%">
      <feGaussianBlur stdDeviation="3"/>
    </filter>
  </defs>

  <rect width="1280" height="780" fill="url(#bg2)"/>

  <text x="640" y="74" text-anchor="middle" fill="#DDE6FF" font-family="'Inter', 'Segoe UI', sans-serif" font-size="42" font-weight="700">Constellation Architecture</text>
  <text x="640" y="108" text-anchor="middle" fill="#9CB3E4" font-family="'Inter', 'Segoe UI', sans-serif" font-size="20">OpenCode plugin flow visualized as star clusters</text>

  <g stroke="#5FC4FF" stroke-opacity="0.5" stroke-width="2">
    <path d="M240 220L420 170L640 240L860 170L1040 220"/>
    <path d="M240 220L220 390L410 430L640 360L860 430L1060 390L1040 220"/>
    <path d="M640 240L640 360"/>
    <path d="M420 170L410 430"/>
    <path d="M860 170L860 430"/>
    <path d="M220 390L380 590L640 640L900 590L1060 390"/>
  </g>

  <g fill="#EAF4FF" filter="url(#soft)">
    <circle cx="240" cy="220" r="9"/>
    <circle cx="420" cy="170" r="10"/>
    <circle cx="640" cy="240" r="12"/>
    <circle cx="860" cy="170" r="10"/>
    <circle cx="1040" cy="220" r="9"/>
    <circle cx="220" cy="390" r="8"/>
    <circle cx="410" cy="430" r="9"/>
    <circle cx="640" cy="360" r="11"/>
    <circle cx="860" cy="430" r="9"/>
    <circle cx="1060" cy="390" r="8"/>
    <circle cx="380" cy="590" r="8"/>
    <circle cx="640" cy="640" r="10"/>
    <circle cx="900" cy="590" r="8"/>
  </g>

  <g font-family="'Inter', 'Segoe UI', sans-serif" font-size="18" fill="#C9D8FF" text-anchor="middle">
    <text x="240" y="202">Config</text>
    <text x="420" y="150">Managers</text>
    <text x="640" y="216">Tool Registry</text>
    <text x="860" y="150">46 Hooks</text>
    <text x="1040" y="202">Plugin Interface</text>

    <text x="220" y="372">Runtime</text>
    <text x="410" y="412">Resource Sample</text>
    <text x="640" y="338">Incident Engine</text>
    <text x="860" y="412">Crash Pointer</text>
    <text x="1060" y="372">MCP Output</text>

    <text x="380" y="572">JSON Report</text>
    <text x="640" y="620">Markdown Summary</text>
    <text x="900" y="572">CI Artifact</text>
  </g>
</svg>
