<svg width="1280" height="720" viewBox="0 0 1280 720" fill="none" xmlns="http://www.w3.org/2000/svg">
  <defs>
    <linearGradient id="bg" x1="120" y1="40" x2="1180" y2="680" gradientUnits="userSpaceOnUse">
      <stop stop-color="#090A1F"/>
      <stop offset="0.45" stop-color="#11193E"/>
      <stop offset="1" stop-color="#1B1040"/>
    </linearGradient>
    <linearGradient id="title" x1="280" y1="290" x2="980" y2="290" gradientUnits="userSpaceOnUse">
      <stop stop-color="#5DE0FF"/>
      <stop offset="0.5" stop-color="#8B9CFF"/>
      <stop offset="1" stop-color="#E48CFF"/>
    </linearGradient>
    <filter id="glow" x="-40%" y="-40%" width="180%" height="180%" color-interpolation-filters="sRGB">
      <feGaussianBlur stdDeviation="4" result="blur"/>
      <feMerge>
        <feMergeNode in="blur"/>
        <feMergeNode in="SourceGraphic"/>
      </feMerge>
    </filter>
  </defs>

  <rect width="1280" height="720" fill="url(#bg)"/>

  <g opacity="0.65" fill="#CDE4FF">
    <circle cx="140" cy="120" r="1.4"/>
    <circle cx="220" cy="84" r="1.2"/>
    <circle cx="330" cy="146" r="1.3"/>
    <circle cx="486" cy="78" r="1.1"/>
    <circle cx="600" cy="126" r="1.6"/>
    <circle cx="712" cy="90" r="1.4"/>
    <circle cx="842" cy="144" r="1.1"/>
    <circle cx="970" cy="72" r="1.4"/>
    <circle cx="1108" cy="128" r="1.2"/>
    <circle cx="1160" cy="214" r="1.3"/>
    <circle cx="1020" cy="226" r="1.2"/>
    <circle cx="894" cy="266" r="1.1"/>
    <circle cx="716" cy="226" r="1.5"/>
    <circle cx="538" cy="250" r="1.2"/>
    <circle cx="372" cy="236" r="1.3"/>
    <circle cx="212" cy="272" r="1.1"/>
    <circle cx="124" cy="330" r="1.2"/>
    <circle cx="236" cy="364" r="1.3"/>
    <circle cx="396" cy="400" r="1.4"/>
    <circle cx="564" cy="382" r="1.2"/>
    <circle cx="748" cy="394" r="1.5"/>
    <circle cx="918" cy="358" r="1.3"/>
    <circle cx="1044" cy="410" r="1.2"/>
    <circle cx="1152" cy="356" r="1.3"/>
    <circle cx="164" cy="510" r="1.2"/>
    <circle cx="284" cy="560" r="1.3"/>
    <circle cx="438" cy="536" r="1.1"/>
    <circle cx="606" cy="588" r="1.4"/>
    <circle cx="780" cy="550" r="1.2"/>
    <circle cx="946" cy="586" r="1.5"/>
    <circle cx="1088" cy="536" r="1.2"/>
    <circle cx="1172" cy="602" r="1.3"/>
  </g>

  <g stroke="#6BD6FF" stroke-opacity="0.55" stroke-width="1.4" filter="url(#glow)">
    <path d="M265 470L395 355L560 390L686 320L835 365L980 290"/>
    <path d="M395 355L420 240L575 200L686 320"/>
    <path d="M835 365L910 470L1030 420L980 290"/>
    <path d="M560 390L590 520L760 540L835 365"/>
  </g>

  <g fill="#E8F6FF" filter="url(#glow)">
    <circle cx="265" cy="470" r="5"/>
    <circle cx="395" cy="355" r="7"/>
    <circle cx="560" cy="390" r="6"/>
    <circle cx="686" cy="320" r="8"/>
    <circle cx="835" cy="365" r="7"/>
    <circle cx="980" cy="290" r="9"/>
    <circle cx="420" cy="240" r="5"/>
    <circle cx="575" cy="200" r="6"/>
    <circle cx="910" cy="470" r="5"/>
    <circle cx="1030" cy="420" r="6"/>
    <circle cx="590" cy="520" r="5"/>
    <circle cx="760" cy="540" r="6"/>
  </g>

  <text x="640" y="304" text-anchor="middle" fill="url(#title)" font-family="'Inter', 'Segoe UI', sans-serif" font-size="68" font-weight="700" letter-spacing="1.5">OH MY SHIT MEMORY</text>
  <text x="640" y="352" text-anchor="middle" fill="#CCDAFF" font-family="'Inter', 'Segoe UI', sans-serif" font-size="25" font-weight="500" letter-spacing="0.5">A Constellation for Runtime Incident Intelligence</text>
  <text x="640" y="612" text-anchor="middle" fill="#8AA4D8" font-family="'Inter', 'Segoe UI', sans-serif" font-size="20" font-weight="500">Benchmark-inspired by code-yeongyu/oh-my-opencode</text>
</svg>
